<svg width="8" height="12" fill="none" xmlns="http://www.w3.org/2000/svg"><path d="M3.607 11.09h.802l.004-.958C6.215 10 7.247 8.97 7.247 7.588c0-1.572-1.402-2.182-2.51-2.454l-.311-.081.008-2.736c.797.106 1.342.55 1.423 1.248h1.27c-.034-1.3-1.108-2.271-2.689-2.399l.005-.984h-.801l-.005.993c-1.53.153-2.65 1.108-2.65 2.484 0 1.215.869 1.926 2.271 2.305l.366.098-.008 2.902c-.831-.102-1.474-.553-1.543-1.376H.753c.08 1.47 1.141 2.416 2.859 2.544l-.005.959zm.81-2.126.009-2.68c.865.239 1.517.554 1.517 1.291 0 .746-.623 1.27-1.526 1.39zM3.63 4.84c-.635-.187-1.334-.524-1.33-1.257 0-.639.507-1.137 1.334-1.261l-.004 2.518z" fill="#363636"/></svg>